<svg xmlns="http://www.w3.org/2000/svg" viewBox="0 0 1440 320">
            <path
              fill="#FBA834"
              fillOpacity="0.8"
              d="M0,256L30,224C60,192,120,128,180,128C240,128,300,192,360,202.7C420,213,480,171,540,176C600,181,660,235,720,234.7C780,235,840,181,900,176C960,171,1020,213,1080,218.7C1140,224,1200,192,1260,192C1320,192,1380,224,1410,240L1440,256L1440,0L1410,0C1380,0,1320,0,1260,0C1200,0,1140,0,1080,0C1020,0,960,0,900,0C840,0,780,0,720,0C660,0,600,0,540,0C480,0,420,0,360,0C300,0,240,0,180,0C120,0,60,0,30,0L0,0Z"
            ></path>
          </svg>